<svg width="24" height="24" viewBox="0 0 24 24" fill="none" xmlns="http://www.w3.org/2000/svg">
<path d="M13.2143 5H6.5C4.84315 5 3.5 6.34315 3.5 8V16C3.5 17.6569 4.84315 19 6.5 19H17.5C19.1569 19 20.5 17.6569 20.5 16V12" stroke="#363F5A" stroke-width="1.2" stroke-linecap="round"/>
<path d="M9.69922 9.37052V14.6295C9.69922 15.0154 10.1178 15.2558 10.4512 15.0614L14.9588 12.4319C15.2896 12.239 15.2896 11.761 14.9588 11.5681L10.4512 8.93863C10.1178 8.74419 9.69922 8.98462 9.69922 9.37052Z" fill="#363F5A"/>
<path d="M20 3.3628L20.5248 4.6935L20.6045 4.89551L20.8065 4.97518L22.1372 5.5L20.8065 6.02482L20.6045 6.10449L20.5248 6.3065L20 7.6372L19.4752 6.3065L19.3955 6.10449L19.1935 6.02482L17.8628 5.5L19.1935 4.97518L19.3955 4.89551L19.4752 4.6935L20 3.3628Z" fill="#363F5A" stroke="#363F5A"/>
</svg>
